<svg width="162" height="27" viewBox="0 0 162 27" fill="none" xmlns="http://www.w3.org/2000/svg">
<path d="M1.4 26.6798C1 26.6798 0.800003 26.4532 0.800003 25.9998C0.800003 25.7598 0.880003 25.3732 1.04 24.8398C1.22667 24.3065 1.41334 23.7732 1.6 23.2398C1.81334 22.7065 1.97334 22.3198 2.08 22.0798C2.29334 21.5198 2.66667 20.6398 3.2 19.4398C3.73334 18.2132 4.34667 16.8132 5.04 15.2398C5.73334 13.6665 6.45334 12.0532 7.2 10.3998C7.94667 8.71983 8.65334 7.14649 9.32 5.67983C10.0133 4.21316 10.6133 2.99982 11.12 2.03983V1.75982C11.12 1.22649 11.4133 0.959826 12 0.959826C12.4 0.959826 12.7467 1.10649 13.04 1.39982C13.0933 1.45316 13.12 1.57316 13.12 1.75982C13.12 1.94649 13.12 2.06649 13.12 2.11982C13.12 2.38649 13.1067 2.65316 13.08 2.91982C13.0533 3.15982 13.0267 3.39982 13 3.63982C12.8667 5.18649 12.7467 6.69316 12.64 8.15982C12.56 9.59982 12.52 10.9598 12.52 12.2398C12.52 14.9332 12.7333 17.1332 13.16 18.8398C13.6133 20.5198 14.3333 21.3598 15.32 21.3598C15.8 21.3598 16.3467 21.0665 16.96 20.4798C17.6 19.8665 18.2533 19.0665 18.92 18.0798C19.6133 17.0665 20.3067 15.9865 21 14.8398C21.6933 13.6665 22.3333 12.5065 22.92 11.3598C23.5333 10.2132 24.0533 9.18649 24.48 8.27983C24.9333 7.34649 25.2667 6.63983 25.48 6.15983L26.6 3.63982C27 2.73316 27.28 2.05316 27.44 1.59982C27.6 1.11982 27.7867 0.786491 28 0.599825C28.2133 0.413158 28.6 0.319824 29.16 0.319824H29.32C29.5067 0.319824 29.68 0.346491 29.84 0.399826C30 0.426492 30.0533 0.533158 30 0.719824C29.44 2.21316 28.9467 3.87983 28.52 5.71982C28.12 7.53316 27.8 9.39983 27.56 11.3198C27.3467 13.2398 27.24 15.1198 27.24 16.9598C27.24 18.3465 27.3067 19.6798 27.44 20.9598C27.6 22.2398 27.84 23.3865 28.16 24.3998C28.1867 24.4798 28.2 24.5865 28.2 24.7198C28.2 24.9865 28.0933 25.1732 27.88 25.2798C27.6933 25.3865 27.4933 25.4398 27.28 25.4398C27.04 25.4398 26.8 25.2665 26.56 24.9198C26.32 24.5732 26.1333 24.0665 26 23.3998C25.8933 22.8932 25.8 22.0798 25.72 20.9598C25.64 19.8398 25.6 18.4398 25.6 16.7598C25.6 13.3465 25.9467 9.97316 26.64 6.63982C25.5733 8.79982 24.4933 10.8665 23.4 12.8398C22.3067 14.8132 21.2267 16.5598 20.16 18.0798C19.12 19.5998 18.1067 20.7998 17.12 21.6798C16.16 22.5598 15.24 22.9998 14.36 22.9998C13.5067 22.9998 12.8133 22.4532 12.28 21.3598C11.7733 20.2665 11.4 18.8265 11.16 17.0398C10.92 15.2532 10.8 13.3332 10.8 11.2798C10.8 10.0532 10.84 8.81316 10.92 7.55982C11 6.30649 11.1067 5.10649 11.24 3.95983C10.9733 4.59982 10.5467 5.58649 9.96 6.91983C9.4 8.25316 8.74667 9.77316 8 11.4798C7.28 13.1865 6.53334 14.9465 5.76 16.7598C5.01334 18.5732 4.32 20.2932 3.68 21.9198C3.04 23.5198 2.53334 24.8932 2.16 26.0398C2.05334 26.4665 1.8 26.6798 1.4 26.6798Z" fill="#FFF9F9"/>
<path d="M44.2378 25.2798C43.4911 25.2798 42.9311 25.0132 42.5578 24.4798C42.1845 23.9465 41.9312 23.3332 41.7978 22.6398C41.6912 21.9198 41.6378 21.2798 41.6378 20.7198C41.6378 20.1598 41.6645 19.6132 41.7178 19.0798C41.7978 18.5198 41.8778 17.9732 41.9578 17.4398C41.6912 17.7865 41.3178 18.2798 40.8378 18.9198C40.3578 19.5332 39.8111 20.2132 39.1978 20.9598C38.5845 21.6798 37.9578 22.3732 37.3178 23.0398C36.6778 23.6798 36.0512 24.2132 35.4378 24.6398C34.8512 25.0398 34.3445 25.2398 33.9178 25.2398C33.5445 25.2398 33.3045 25.0665 33.1978 24.7198C33.1178 24.3732 33.0778 24.0665 33.0778 23.7998C33.0778 22.5998 33.3178 21.3332 33.7978 19.9998C34.2778 18.6665 34.7711 17.4665 35.2778 16.3998C35.4112 16.1065 35.6111 15.7065 35.8778 15.1998C36.1445 14.6932 36.4511 14.1732 36.7978 13.6398C37.1712 13.1065 37.5578 12.6665 37.9578 12.3198C38.3578 11.9732 38.7578 11.8265 39.1578 11.8798C39.4512 11.6932 39.7311 11.5332 39.9978 11.3998C40.2911 11.2398 40.6111 11.1598 40.9578 11.1598C41.1712 11.1598 41.5178 11.2265 41.9978 11.3598C42.5045 11.4932 42.8645 11.5865 43.0778 11.6398C43.1845 11.4265 43.3445 11.2665 43.5578 11.1598C43.7711 11.0532 43.9845 10.9998 44.1978 10.9998C44.4111 10.9998 44.5578 11.0132 44.6378 11.0398C44.7445 10.9865 44.8245 10.9598 44.8778 10.9598C45.0378 10.9598 45.1445 11.0798 45.1978 11.3198C45.2511 11.5332 45.2778 11.7065 45.2778 11.8398C45.2778 12.1865 45.2378 12.4932 45.1578 12.7598C45.0778 13.0265 44.9711 13.3198 44.8378 13.6398C44.7311 13.9065 44.6378 14.1598 44.5578 14.3998C44.5045 14.6132 44.3578 14.8132 44.1178 14.9998C43.9311 15.9598 43.7845 16.9332 43.6778 17.9198C43.5978 18.8798 43.5578 19.8532 43.5578 20.8398C43.5578 21.1865 43.5711 21.5998 43.5978 22.0798C43.6511 22.5598 43.7711 22.9865 43.9578 23.3598C44.1712 23.7332 44.4911 23.9198 44.9178 23.9198C45.5845 23.9198 46.1711 23.6798 46.6778 23.1998C47.2111 22.6932 47.6511 22.2132 47.9978 21.7598C48.0511 21.6798 48.1178 21.5998 48.1978 21.5198C48.2778 21.4132 48.3712 21.3332 48.4778 21.2798L48.5978 21.5198C48.5978 21.7865 48.4645 22.1065 48.1978 22.4798C47.9311 22.8532 47.6378 23.2132 47.3178 23.5598C46.9978 23.8798 46.7311 24.1198 46.5178 24.2798C46.1978 24.5465 45.8378 24.7865 45.4378 24.9998C45.0645 25.1865 44.6645 25.2798 44.2378 25.2798ZM35.2778 23.5998C35.4378 23.5998 35.6111 23.5332 35.7978 23.3998C35.9845 23.2665 36.1311 23.1465 36.2378 23.0398C37.4911 21.9465 38.5978 20.7198 39.5578 19.3598C40.5445 17.9998 41.3978 16.5865 42.1178 15.1198C42.1978 14.9865 42.2778 14.8398 42.3578 14.6798C42.4378 14.5198 42.4911 14.3598 42.5178 14.1998C42.5711 13.9865 42.6245 13.7598 42.6778 13.5198C42.7311 13.2532 42.7711 13.0132 42.7978 12.7998C42.7711 12.6665 42.6245 12.5465 42.3578 12.4398C42.0911 12.3332 41.7978 12.2532 41.4778 12.1998C41.1845 12.1198 40.9711 12.0798 40.8378 12.0798C40.3311 12.0798 39.8778 12.2932 39.4778 12.7198C39.1045 13.1198 38.7845 13.5065 38.5178 13.8798C38.1978 14.3598 37.8245 14.9865 37.3978 15.7598C36.9978 16.5332 36.5978 17.3598 36.1978 18.2398C35.8245 19.0932 35.5045 19.9198 35.2378 20.7198C34.9978 21.5198 34.8778 22.1998 34.8778 22.7598C34.8778 22.8932 34.8912 23.0665 34.9178 23.2798C34.9711 23.4932 35.0911 23.5998 35.2778 23.5998Z" fill="#FFF9F9"/>
<path d="M47.9691 25.7198C47.7557 25.7198 47.6224 25.6398 47.5691 25.4798C47.6757 25.2398 47.7824 24.9998 47.8891 24.7598C47.9957 24.5198 48.0891 24.2665 48.1691 23.9998C48.6491 22.5865 49.0757 21.1598 49.4491 19.7198C49.8491 18.2798 50.2357 16.8398 50.6091 15.3998L50.9291 14.1598C50.9291 14.0798 50.8357 14.0532 50.6491 14.0798C50.4624 14.0798 50.3557 14.0398 50.3291 13.9598C50.5157 13.4798 50.6757 12.9998 50.8091 12.5198C50.9691 12.0132 51.1424 11.5198 51.3291 11.0398C51.4091 10.8265 51.6624 10.6265 52.0891 10.4398C52.5157 10.2532 52.8357 10.1598 53.0491 10.1598C53.4224 10.1598 53.6091 10.3332 53.6091 10.6798C53.6091 10.8665 53.5157 11.2532 53.3291 11.8398C53.1691 12.3998 52.9557 13.0665 52.6891 13.8398C52.4491 14.5865 52.1824 15.3598 51.8891 16.1598C51.6224 16.9332 51.3691 17.6532 51.1291 18.3198C50.9157 18.9598 50.7557 19.4532 50.6491 19.7998C51.1291 18.8398 51.7024 17.7998 52.3691 16.6798C53.0357 15.5598 53.7691 14.4932 54.5691 13.4798C55.3691 12.4665 56.2224 11.6665 57.1291 11.0798C57.4224 10.8932 57.6891 10.7998 57.9291 10.7998C58.4891 10.7998 58.9024 11.0932 59.1691 11.6798C59.4357 12.2398 59.5691 12.7465 59.5691 13.1998C59.5691 13.3598 59.5291 13.6132 59.4491 13.9598C59.3691 14.2798 59.2491 14.5865 59.0891 14.8798C58.9557 15.1465 58.7824 15.2798 58.5691 15.2798C58.4091 15.2798 58.3024 15.1598 58.2491 14.9198C58.1957 14.6532 58.1424 14.3598 58.0891 14.0398C58.0357 13.6932 57.9424 13.3998 57.8091 13.1598C57.6757 12.8932 57.4624 12.7598 57.1691 12.7598C56.7424 12.7598 56.2624 13.0265 55.7291 13.5598C55.1957 14.0665 54.6491 14.7198 54.0891 15.5198C53.5291 16.3198 52.9824 17.1732 52.4491 18.0798C51.9424 18.9598 51.4891 19.7732 51.0891 20.5198C50.7157 21.2665 50.4491 21.8398 50.2891 22.2398C50.3157 22.3198 50.3291 22.4398 50.3291 22.5998C50.3291 22.8932 50.2624 23.2398 50.1291 23.6398C50.0224 24.0132 49.9024 24.3465 49.7691 24.6398C49.7691 24.7998 49.6491 24.9598 49.4091 25.1198C49.1957 25.2798 48.9424 25.4132 48.6491 25.5198C48.3557 25.6532 48.1291 25.7198 47.9691 25.7198Z" fill="#FFF9F9"/>
<path d="M64.2516 9.15982C64.1449 9.15982 64.0382 9.05316 63.9316 8.83983C63.8516 8.62649 63.7849 8.39982 63.7316 8.15982C63.7049 7.89316 63.6916 7.70649 63.6916 7.59982C63.6916 7.54649 63.6916 7.47983 63.6916 7.39983C63.7182 7.29316 63.7716 7.22649 63.8516 7.19983C64.3049 7.14649 64.7316 7.06649 65.1316 6.95982C65.5582 6.85316 65.9849 6.73316 66.4116 6.59983C66.4649 6.57316 66.5582 6.55982 66.6916 6.55982C66.9049 6.55982 67.0116 6.67982 67.0116 6.91983C67.0116 7.45316 66.7582 7.89316 66.2516 8.23982C65.9582 8.42649 65.6382 8.62649 65.2916 8.83983C64.9716 9.05316 64.6249 9.15982 64.2516 9.15982ZM60.3316 25.2798C59.9316 25.2798 59.7316 25.0665 59.7316 24.6398C59.7316 24.1865 59.8116 23.5998 59.9716 22.8798C60.1316 22.1332 60.3182 21.3865 60.5316 20.6398C60.7449 19.8932 60.9049 19.3065 61.0116 18.8798C61.0382 18.7732 61.1182 18.4932 61.2516 18.0398C61.3849 17.5598 61.5316 17.0398 61.6916 16.4798C61.8516 15.9198 61.9849 15.4265 62.0916 14.9998C62.2249 14.5465 62.2916 14.2798 62.2916 14.1998C62.2916 14.0665 62.2116 13.9465 62.0516 13.8398C61.9182 13.7332 61.8516 13.6132 61.8516 13.4798C61.8516 13.3998 61.8649 13.3198 61.8916 13.2398C61.9182 13.1598 61.9449 13.0932 61.9716 13.0398C62.0516 12.9065 62.2516 12.7332 62.5716 12.5198C62.8916 12.3065 63.2249 12.1198 63.5716 11.9598C63.9449 11.7732 64.1982 11.6798 64.3316 11.6798C64.4116 11.6798 64.4649 11.6932 64.4916 11.7198C64.5182 11.7732 64.5316 11.8665 64.5316 11.9998C64.5316 12.2398 64.4649 12.5998 64.3316 13.0798C64.2249 13.5598 64.0782 14.0932 63.8916 14.6798C63.7316 15.2398 63.5716 15.7598 63.4116 16.2398C63.2516 16.7198 63.1316 17.0798 63.0516 17.3198C62.9182 17.7198 62.7316 18.2932 62.4916 19.0398C62.2516 19.7865 62.0382 20.5332 61.8516 21.2798C61.6649 22.0265 61.5716 22.6132 61.5716 23.0398C61.5716 23.0932 61.5849 23.2132 61.6116 23.3998C61.6382 23.5598 61.7049 23.6398 61.8116 23.6398C61.9449 23.6398 62.1849 23.5332 62.5316 23.3198C62.9049 23.0798 63.2916 22.8532 63.6916 22.6398C64.0916 22.4265 64.3982 22.3198 64.6116 22.3198C64.7182 22.3198 64.7849 22.3465 64.8116 22.3998C64.8116 22.5065 64.6382 22.6932 64.2916 22.9598C63.9449 23.1998 63.5716 23.4532 63.1716 23.7198C62.7982 23.9598 62.5449 24.1465 62.4116 24.2798C62.1449 24.5198 61.8249 24.7465 61.4516 24.9598C61.0782 25.1732 60.7049 25.2798 60.3316 25.2798Z" fill="#FFF9F9"/>
<path d="M66.7953 25.7198C66.582 25.7198 66.4753 25.6398 66.4753 25.4798L66.9953 23.9598C67.1286 23.6132 67.2086 23.2798 67.2353 22.9598C67.2887 22.6132 67.3687 22.2665 67.4753 21.9198C67.6353 21.2265 67.8086 20.5332 67.9953 19.8398C68.182 19.1465 68.382 18.4665 68.5953 17.7998C68.6753 17.5598 68.782 17.2132 68.9153 16.7598C69.0486 16.3065 69.1686 15.8532 69.2753 15.3998C69.4086 14.9198 69.4753 14.5598 69.4753 14.3198C69.4753 14.1865 69.382 14.1332 69.1953 14.1598C69.0353 14.1865 68.942 14.1598 68.9153 14.0798C69.102 13.5998 69.262 13.1065 69.3953 12.5998C69.5286 12.0932 69.6886 11.5998 69.8753 11.1198C69.9553 10.9065 70.1686 10.7065 70.5153 10.5198C70.862 10.3065 71.142 10.1998 71.3553 10.1998C71.7287 10.1998 71.9153 10.4398 71.9153 10.9198C71.9153 11.3465 71.8086 11.9998 71.5953 12.8798C71.382 13.7598 71.102 14.7198 70.7553 15.7598C70.4353 16.7998 70.1153 17.8132 69.7953 18.7998C69.502 19.7598 69.2486 20.5465 69.0353 21.1598C69.8886 20.3598 70.742 19.4798 71.5953 18.5198C72.4486 17.5598 73.222 16.5998 73.9153 15.6398C74.6353 14.6532 75.1953 13.7598 75.5953 12.9598C75.5953 12.6665 75.782 12.4665 76.1553 12.3598C76.5553 12.2532 76.862 12.2265 77.0753 12.2798C77.182 12.2265 77.262 12.1998 77.3153 12.1998C77.5553 12.1998 77.702 12.3865 77.7553 12.7598C77.8353 13.1065 77.8753 13.3598 77.8753 13.5198C77.8753 13.8132 77.8353 14.2265 77.7553 14.7598C77.702 15.2665 77.5153 15.5998 77.1953 15.7598C77.1686 15.9732 77.1553 16.1998 77.1553 16.4398C77.1553 16.6532 77.1553 16.8665 77.1553 17.0798C77.1553 17.3998 77.1686 17.9332 77.1953 18.6798C77.2486 19.3998 77.342 20.1598 77.4753 20.9598C77.6087 21.7598 77.822 22.4532 78.1153 23.0398C78.4087 23.5998 78.8086 23.8798 79.3153 23.8798C79.7953 23.8798 80.2086 23.7465 80.5553 23.4798C80.9286 23.2132 81.2487 22.9065 81.5153 22.5598C81.782 22.2132 81.9953 21.9065 82.1553 21.6398C82.3153 21.3732 82.4353 21.2398 82.5153 21.2398C82.6487 21.2398 82.7153 21.3198 82.7153 21.4798C82.7153 21.8532 82.5153 22.3065 82.1153 22.8398C81.742 23.3732 81.422 23.7732 81.1553 24.0398C80.862 24.3598 80.5153 24.6398 80.1153 24.8798C79.7153 25.1198 79.2887 25.2398 78.8353 25.2398C78.0353 25.2398 77.4086 24.9598 76.9553 24.3998C76.502 23.8132 76.1553 23.1065 75.9153 22.2798C75.702 21.4265 75.5553 20.5732 75.4753 19.7198C75.422 18.8398 75.3953 18.1198 75.3953 17.5598C75.3953 17.0532 75.3953 16.5598 75.3953 16.0798C75.422 15.5998 75.4487 15.1198 75.4753 14.6398C75.0487 15.3865 74.5553 16.1065 73.9953 16.7998C73.4353 17.4932 72.8886 18.1732 72.3553 18.8398C71.5553 19.7465 70.7686 20.7332 69.9953 21.7998C69.862 21.9865 69.7286 22.2132 69.5953 22.4798C69.4886 22.7198 69.342 22.9332 69.1553 23.1198L69.0753 23.1998C68.8886 23.7065 68.7687 24.0932 68.7153 24.3598C68.662 24.6265 68.3953 24.9198 67.9153 25.2398C67.7553 25.3465 67.582 25.4532 67.3953 25.5598C67.2086 25.6665 67.0087 25.7198 66.7953 25.7198Z" fill="#FFF9F9"/>
<path d="M93.3394 25.2798C92.5927 25.2798 92.0327 25.0132 91.6594 24.4798C91.286 23.9465 91.0327 23.3332 90.8994 22.6398C90.7927 21.9198 90.7394 21.2798 90.7394 20.7198C90.7394 20.1598 90.7661 19.6132 90.8194 19.0798C90.8994 18.5198 90.9794 17.9732 91.0594 17.4398C90.7927 17.7865 90.4194 18.2798 89.9394 18.9198C89.4594 19.5332 88.9127 20.2132 88.2994 20.9598C87.686 21.6798 87.0594 22.3732 86.4194 23.0398C85.7794 23.6798 85.1527 24.2132 84.5394 24.6398C83.9527 25.0398 83.446 25.2398 83.0194 25.2398C82.646 25.2398 82.406 25.0665 82.2994 24.7198C82.2194 24.3732 82.1794 24.0665 82.1794 23.7998C82.1794 22.5998 82.4194 21.3332 82.8994 19.9998C83.3794 18.6665 83.8727 17.4665 84.3794 16.3998C84.5127 16.1065 84.7127 15.7065 84.9794 15.1998C85.246 14.6932 85.5527 14.1732 85.8994 13.6398C86.2727 13.1065 86.6594 12.6665 87.0594 12.3198C87.4594 11.9732 87.8594 11.8265 88.2594 11.8798C88.5527 11.6932 88.8327 11.5332 89.0994 11.3998C89.3927 11.2398 89.7127 11.1598 90.0594 11.1598C90.2727 11.1598 90.6194 11.2265 91.0994 11.3598C91.606 11.4932 91.966 11.5865 92.1794 11.6398C92.286 11.4265 92.446 11.2665 92.6594 11.1598C92.8727 11.0532 93.086 10.9998 93.2994 10.9998C93.5127 10.9998 93.6594 11.0132 93.7394 11.0398C93.846 10.9865 93.926 10.9598 93.9794 10.9598C94.1394 10.9598 94.246 11.0798 94.2994 11.3198C94.3527 11.5332 94.3794 11.7065 94.3794 11.8398C94.3794 12.1865 94.3394 12.4932 94.2594 12.7598C94.1794 13.0265 94.0727 13.3198 93.9394 13.6398C93.8327 13.9065 93.7394 14.1598 93.6594 14.3998C93.606 14.6132 93.4594 14.8132 93.2194 14.9998C93.0327 15.9598 92.886 16.9332 92.7794 17.9198C92.6994 18.8798 92.6594 19.8532 92.6594 20.8398C92.6594 21.1865 92.6727 21.5998 92.6994 22.0798C92.7527 22.5598 92.8727 22.9865 93.0594 23.3598C93.2727 23.7332 93.5927 23.9198 94.0194 23.9198C94.686 23.9198 95.2727 23.6798 95.7794 23.1998C96.3127 22.6932 96.7527 22.2132 97.0994 21.7598C97.1527 21.6798 97.2194 21.5998 97.2994 21.5198C97.3794 21.4132 97.4727 21.3332 97.5794 21.2798L97.6994 21.5198C97.6994 21.7865 97.566 22.1065 97.2994 22.4798C97.0327 22.8532 96.7394 23.2132 96.4194 23.5598C96.0994 23.8798 95.8327 24.1198 95.6194 24.2798C95.2994 24.5465 94.9394 24.7865 94.5394 24.9998C94.166 25.1865 93.766 25.2798 93.3394 25.2798ZM84.3794 23.5998C84.5394 23.5998 84.7127 23.5332 84.8994 23.3998C85.086 23.2665 85.2327 23.1465 85.3394 23.0398C86.5927 21.9465 87.6994 20.7198 88.6594 19.3598C89.646 17.9998 90.4994 16.5865 91.2194 15.1198C91.2994 14.9865 91.3794 14.8398 91.4594 14.6798C91.5394 14.5198 91.5927 14.3598 91.6194 14.1998C91.6727 13.9865 91.726 13.7598 91.7794 13.5198C91.8327 13.2532 91.8727 13.0132 91.8994 12.7998C91.8727 12.6665 91.726 12.5465 91.4594 12.4398C91.1927 12.3332 90.8994 12.2532 90.5794 12.1998C90.286 12.1198 90.0727 12.0798 89.9394 12.0798C89.4327 12.0798 88.9794 12.2932 88.5794 12.7198C88.206 13.1198 87.886 13.5065 87.6194 13.8798C87.2994 14.3598 86.926 14.9865 86.4994 15.7598C86.0994 16.5332 85.6994 17.3598 85.2994 18.2398C84.926 19.0932 84.606 19.9198 84.3394 20.7198C84.0994 21.5198 83.9794 22.1998 83.9794 22.7598C83.9794 22.8932 83.9927 23.0665 84.0194 23.2798C84.0727 23.4932 84.1927 23.5998 84.3794 23.5998Z" fill="#FFF9F9"/>
<path d="M108.871 26.3198C108.657 26.3198 108.524 26.1598 108.471 25.8398C108.417 25.5198 108.391 25.2265 108.391 24.9598C108.391 24.5598 108.431 23.9998 108.511 23.2798C108.617 22.5332 108.751 21.7198 108.911 20.8398C109.071 19.9332 109.231 19.0398 109.391 18.1598C109.577 17.2798 109.737 16.5198 109.871 15.8798C109.817 15.8798 109.777 15.8798 109.751 15.8798C109.751 15.6665 109.657 15.4932 109.471 15.3598C109.284 15.2265 109.191 15.0532 109.191 14.8398C109.191 14.6265 109.324 14.5198 109.591 14.5198C109.857 14.4932 110.071 14.4665 110.231 14.4398C110.337 14.0932 110.471 13.4932 110.631 12.6398C110.817 11.7865 111.004 10.8265 111.191 9.75983C111.404 8.69316 111.604 7.63983 111.791 6.59983C111.977 5.53316 112.124 4.59983 112.231 3.79982C112.364 2.99983 112.431 2.46649 112.431 2.19982C112.431 1.95982 112.297 1.83982 112.031 1.83982C111.791 1.83982 111.537 1.83982 111.271 1.83982C111.004 1.83982 110.871 1.71982 110.871 1.47983C110.871 1.21316 111.017 1.02649 111.311 0.919824C111.631 0.813158 111.991 0.746492 112.391 0.719824C112.791 0.666491 113.137 0.639825 113.431 0.639825C114.924 0.639825 116.404 0.706491 117.871 0.839825C119.364 0.973158 120.844 1.03982 122.311 1.03982H122.551C122.924 1.03982 123.177 0.986491 123.311 0.879824C123.444 0.773157 123.551 0.666491 123.631 0.559826C123.711 0.453159 123.817 0.399826 123.951 0.399826C124.137 0.399826 124.364 0.506492 124.631 0.719824C124.924 0.906491 125.071 1.09316 125.071 1.27982C125.071 1.38649 125.044 1.45316 124.991 1.47983C124.937 1.50649 124.884 1.54649 124.831 1.59982C124.191 2.02649 123.777 2.61316 123.591 3.35983C123.431 4.07983 123.257 4.77316 123.071 5.43983C123.044 5.51982 123.004 5.63982 122.951 5.79983C122.924 5.95982 122.844 6.03982 122.711 6.03982C122.604 6.03982 122.524 5.95982 122.471 5.79983C122.444 5.63982 122.431 5.50649 122.431 5.39983C122.431 5.13316 122.457 4.77316 122.511 4.31983C122.591 3.86649 122.671 3.41316 122.751 2.95983C122.831 2.47983 122.911 2.11983 122.991 1.87983C122.964 1.90649 122.831 1.91983 122.591 1.91983C122.217 1.91983 121.657 1.89316 120.911 1.83982C120.191 1.78649 119.444 1.73316 118.671 1.67983C117.924 1.62649 117.311 1.59982 116.831 1.59982C116.617 1.59982 116.257 1.61316 115.751 1.63982C115.244 1.63982 114.897 1.70649 114.711 1.83982C114.657 1.86649 114.551 2.17316 114.391 2.75982C114.257 3.34649 114.084 4.10649 113.871 5.03983C113.657 5.94649 113.431 6.91982 113.191 7.95982C112.977 8.97316 112.764 9.95983 112.551 10.9198C112.364 11.8532 112.204 12.6398 112.071 13.2798C111.964 13.9198 111.911 14.2932 111.911 14.3998C111.911 14.5332 112.124 14.6265 112.551 14.6798C113.004 14.7065 113.431 14.7198 113.831 14.7198H117.911C118.391 14.7198 118.937 14.7332 119.551 14.7598C120.164 14.7598 120.697 14.7998 121.151 14.8798C121.631 14.9598 121.871 15.0798 121.871 15.2398C121.871 15.3465 121.684 15.4398 121.311 15.5198C120.937 15.5998 120.551 15.6532 120.151 15.6798C119.751 15.7065 119.497 15.7332 119.391 15.7598C118.484 15.8132 117.564 15.8665 116.631 15.9198C115.697 15.9465 114.777 15.9598 113.871 15.9598C113.417 15.9598 112.991 15.9598 112.591 15.9598C112.191 15.9598 111.817 15.9465 111.471 15.9198C111.097 17.4932 110.791 18.9332 110.551 20.2398C110.337 21.5198 110.231 22.5598 110.231 23.3598C110.231 23.7065 110.271 23.9198 110.351 23.9998C110.457 24.0798 110.551 24.1465 110.631 24.1998C110.711 24.2532 110.751 24.4132 110.751 24.6798C110.751 24.8665 110.631 25.0798 110.391 25.3198C110.151 25.5865 109.884 25.8132 109.591 25.9998C109.297 26.2132 109.057 26.3198 108.871 26.3198Z" fill="#FFF9F9"/>
<path d="M127.611 9.15982C127.504 9.15982 127.398 9.05316 127.291 8.83983C127.211 8.62649 127.144 8.39982 127.091 8.15982C127.064 7.89316 127.051 7.70649 127.051 7.59982C127.051 7.54649 127.051 7.47983 127.051 7.39983C127.078 7.29316 127.131 7.22649 127.211 7.19983C127.664 7.14649 128.091 7.06649 128.491 6.95982C128.918 6.85316 129.344 6.73316 129.771 6.59983C129.824 6.57316 129.918 6.55982 130.051 6.55982C130.264 6.55982 130.371 6.67982 130.371 6.91983C130.371 7.45316 130.118 7.89316 129.611 8.23982C129.318 8.42649 128.998 8.62649 128.651 8.83983C128.331 9.05316 127.984 9.15982 127.611 9.15982ZM123.691 25.2798C123.291 25.2798 123.091 25.0665 123.091 24.6398C123.091 24.1865 123.171 23.5998 123.331 22.8798C123.491 22.1332 123.678 21.3865 123.891 20.6398C124.104 19.8932 124.264 19.3065 124.371 18.8798C124.398 18.7732 124.478 18.4932 124.611 18.0398C124.744 17.5598 124.891 17.0398 125.051 16.4798C125.211 15.9198 125.344 15.4265 125.451 14.9998C125.584 14.5465 125.651 14.2798 125.651 14.1998C125.651 14.0665 125.571 13.9465 125.411 13.8398C125.278 13.7332 125.211 13.6132 125.211 13.4798C125.211 13.3998 125.224 13.3198 125.251 13.2398C125.278 13.1598 125.304 13.0932 125.331 13.0398C125.411 12.9065 125.611 12.7332 125.931 12.5198C126.251 12.3065 126.584 12.1198 126.931 11.9598C127.304 11.7732 127.558 11.6798 127.691 11.6798C127.771 11.6798 127.824 11.6932 127.851 11.7198C127.878 11.7732 127.891 11.8665 127.891 11.9998C127.891 12.2398 127.824 12.5998 127.691 13.0798C127.584 13.5598 127.438 14.0932 127.251 14.6798C127.091 15.2398 126.931 15.7598 126.771 16.2398C126.611 16.7198 126.491 17.0798 126.411 17.3198C126.278 17.7198 126.091 18.2932 125.851 19.0398C125.611 19.7865 125.398 20.5332 125.211 21.2798C125.024 22.0265 124.931 22.6132 124.931 23.0398C124.931 23.0932 124.944 23.2132 124.971 23.3998C124.998 23.5598 125.064 23.6398 125.171 23.6398C125.304 23.6398 125.544 23.5332 125.891 23.3198C126.264 23.0798 126.651 22.8532 127.051 22.6398C127.451 22.4265 127.758 22.3198 127.971 22.3198C128.078 22.3198 128.144 22.3465 128.171 22.3998C128.171 22.5065 127.998 22.6932 127.651 22.9598C127.304 23.1998 126.931 23.4532 126.531 23.7198C126.158 23.9598 125.904 24.1465 125.771 24.2798C125.504 24.5198 125.184 24.7465 124.811 24.9598C124.438 25.1732 124.064 25.2798 123.691 25.2798Z" fill="#FFF9F9"/>
<path d="M133.275 25.3998C132.288 25.3998 131.621 25.1198 131.275 24.5598C130.928 23.9732 130.755 23.2265 130.755 22.3198C130.755 21.3598 130.901 20.4398 131.195 19.5598C131.488 18.6798 131.808 17.7998 132.155 16.9198C131.968 16.7865 131.795 16.6132 131.635 16.3998C131.501 16.1865 131.435 15.8798 131.435 15.4798C131.435 15.0265 131.701 14.4532 132.235 13.7598C132.768 13.0398 133.368 12.4132 134.035 11.8798C134.328 11.6398 134.715 11.3865 135.195 11.1198C135.675 10.8265 136.168 10.5865 136.675 10.3998C137.181 10.1865 137.595 10.0798 137.915 10.0798C139.035 10.0798 139.781 10.5332 140.155 11.4398C140.528 12.3465 140.661 13.4265 140.555 14.6798C140.661 14.6265 140.848 14.5465 141.115 14.4398C141.408 14.3332 141.688 14.2398 141.955 14.1598C142.221 14.0532 142.381 13.9998 142.435 13.9998C142.568 13.9998 142.701 14.0665 142.835 14.1998C142.968 14.3332 143.035 14.4665 143.035 14.5998C143.035 14.6798 142.995 14.7465 142.915 14.7998L140.395 15.7598C140.235 16.5865 139.968 17.5465 139.595 18.6398C139.248 19.7332 138.768 20.7998 138.155 21.8398C137.568 22.8532 136.861 23.7065 136.035 24.3998C135.235 25.0665 134.315 25.3998 133.275 25.3998ZM135.195 15.9998C135.861 15.9998 136.501 15.9332 137.115 15.7998C137.728 15.6398 138.395 15.4398 139.115 15.1998C139.141 15.0665 139.155 14.9198 139.155 14.7598C139.181 14.5998 139.195 14.4532 139.195 14.3198C139.195 13.9998 139.155 13.6398 139.075 13.2398C139.021 12.8398 138.888 12.4932 138.675 12.1998C138.488 11.8798 138.195 11.7198 137.795 11.7198C137.341 11.7198 136.901 11.8932 136.475 12.2398C136.048 12.5865 135.648 12.9998 135.275 13.4798C134.928 13.9598 134.621 14.4265 134.355 14.8798C134.115 15.3332 133.941 15.6665 133.835 15.8798C134.315 15.9598 134.768 15.9998 135.195 15.9998ZM133.635 24.3198C134.381 24.3198 135.035 24.0798 135.595 23.5998C136.181 23.0932 136.688 22.4398 137.115 21.6398C137.541 20.8398 137.901 19.9732 138.195 19.0398C138.515 18.1065 138.768 17.1865 138.955 16.2798C138.155 16.5465 137.235 16.8132 136.195 17.0798C135.181 17.3198 134.248 17.3865 133.395 17.2798C133.128 17.9998 132.888 18.8132 132.675 19.7198C132.488 20.6265 132.395 21.4665 132.395 22.2398C132.395 22.6665 132.461 23.1198 132.595 23.5998C132.755 24.0798 133.101 24.3198 133.635 24.3198Z" fill="#FFF9F9"/>
<path d="M142.422 25.7198C142.209 25.7198 142.076 25.6398 142.022 25.4798C142.129 25.2398 142.236 24.9998 142.342 24.7598C142.449 24.5198 142.542 24.2665 142.622 23.9998C143.102 22.5865 143.529 21.1598 143.902 19.7198C144.302 18.2798 144.689 16.8398 145.062 15.3998L145.382 14.1598C145.382 14.0798 145.289 14.0532 145.102 14.0798C144.916 14.0798 144.809 14.0398 144.782 13.9598C144.969 13.4798 145.129 12.9998 145.262 12.5198C145.422 12.0132 145.596 11.5198 145.782 11.0398C145.862 10.8265 146.116 10.6265 146.542 10.4398C146.969 10.2532 147.289 10.1598 147.502 10.1598C147.876 10.1598 148.062 10.3332 148.062 10.6798C148.062 10.8665 147.969 11.2532 147.782 11.8398C147.622 12.3998 147.409 13.0665 147.142 13.8398C146.902 14.5865 146.636 15.3598 146.342 16.1598C146.076 16.9332 145.822 17.6532 145.582 18.3198C145.369 18.9598 145.209 19.4532 145.102 19.7998C145.582 18.8398 146.156 17.7998 146.822 16.6798C147.489 15.5598 148.222 14.4932 149.022 13.4798C149.822 12.4665 150.676 11.6665 151.582 11.0798C151.876 10.8932 152.142 10.7998 152.382 10.7998C152.942 10.7998 153.356 11.0932 153.622 11.6798C153.889 12.2398 154.022 12.7465 154.022 13.1998C154.022 13.3598 153.982 13.6132 153.902 13.9598C153.822 14.2798 153.702 14.5865 153.542 14.8798C153.409 15.1465 153.236 15.2798 153.022 15.2798C152.862 15.2798 152.756 15.1598 152.702 14.9198C152.649 14.6532 152.596 14.3598 152.542 14.0398C152.489 13.6932 152.396 13.3998 152.262 13.1598C152.129 12.8932 151.916 12.7598 151.622 12.7598C151.196 12.7598 150.716 13.0265 150.182 13.5598C149.649 14.0665 149.102 14.7198 148.542 15.5198C147.982 16.3198 147.436 17.1732 146.902 18.0798C146.396 18.9598 145.942 19.7732 145.542 20.5198C145.169 21.2665 144.902 21.8398 144.742 22.2398C144.769 22.3198 144.782 22.4398 144.782 22.5998C144.782 22.8932 144.716 23.2398 144.582 23.6398C144.476 24.0132 144.356 24.3465 144.222 24.6398C144.222 24.7998 144.102 24.9598 143.862 25.1198C143.649 25.2798 143.396 25.4132 143.102 25.5198C142.809 25.6532 142.582 25.7198 142.422 25.7198Z" fill="#FFF9F9"/>
<path d="M158.705 9.15982C158.598 9.15982 158.491 9.05316 158.385 8.83983C158.305 8.62649 158.238 8.39982 158.185 8.15982C158.158 7.89316 158.145 7.70649 158.145 7.59982C158.145 7.54649 158.145 7.47983 158.145 7.39983C158.171 7.29316 158.225 7.22649 158.305 7.19983C158.758 7.14649 159.185 7.06649 159.585 6.95982C160.011 6.85316 160.438 6.73316 160.865 6.59983C160.918 6.57316 161.011 6.55982 161.145 6.55982C161.358 6.55982 161.465 6.67982 161.465 6.91983C161.465 7.45316 161.211 7.89316 160.705 8.23982C160.411 8.42649 160.091 8.62649 159.745 8.83983C159.425 9.05316 159.078 9.15982 158.705 9.15982ZM154.785 25.2798C154.385 25.2798 154.185 25.0665 154.185 24.6398C154.185 24.1865 154.265 23.5998 154.425 22.8798C154.585 22.1332 154.771 21.3865 154.985 20.6398C155.198 19.8932 155.358 19.3065 155.465 18.8798C155.491 18.7732 155.571 18.4932 155.705 18.0398C155.838 17.5598 155.985 17.0398 156.145 16.4798C156.305 15.9198 156.438 15.4265 156.545 14.9998C156.678 14.5465 156.745 14.2798 156.745 14.1998C156.745 14.0665 156.665 13.9465 156.505 13.8398C156.371 13.7332 156.305 13.6132 156.305 13.4798C156.305 13.3998 156.318 13.3198 156.345 13.2398C156.371 13.1598 156.398 13.0932 156.425 13.0398C156.505 12.9065 156.705 12.7332 157.025 12.5198C157.345 12.3065 157.678 12.1198 158.025 11.9598C158.398 11.7732 158.651 11.6798 158.785 11.6798C158.865 11.6798 158.918 11.6932 158.945 11.7198C158.971 11.7732 158.985 11.8665 158.985 11.9998C158.985 12.2398 158.918 12.5998 158.785 13.0798C158.678 13.5598 158.531 14.0932 158.345 14.6798C158.185 15.2398 158.025 15.7598 157.865 16.2398C157.705 16.7198 157.585 17.0798 157.505 17.3198C157.371 17.7198 157.185 18.2932 156.945 19.0398C156.705 19.7865 156.491 20.5332 156.305 21.2798C156.118 22.0265 156.025 22.6132 156.025 23.0398C156.025 23.0932 156.038 23.2132 156.065 23.3998C156.091 23.5598 156.158 23.6398 156.265 23.6398C156.398 23.6398 156.638 23.5332 156.985 23.3198C157.358 23.0798 157.745 22.8532 158.145 22.6398C158.545 22.4265 158.851 22.3198 159.065 22.3198C159.171 22.3198 159.238 22.3465 159.265 22.3998C159.265 22.5065 159.091 22.6932 158.745 22.9598C158.398 23.1998 158.025 23.4532 157.625 23.7198C157.251 23.9598 156.998 24.1465 156.865 24.2798C156.598 24.5198 156.278 24.7465 155.905 24.9598C155.531 25.1732 155.158 25.2798 154.785 25.2798Z" fill="#FFF9F9"/>
</svg>
