<svg width="28" height="28" viewBox="0 0 28 28" fill="none" xmlns="http://www.w3.org/2000/svg">
<path d="M8.96 1.68018C4.94619 1.68018 1.68 4.94636 1.68 8.96018V19.0402C1.68 23.054 4.94619 26.3202 8.96 26.3202H19.04C23.0538 26.3202 26.32 23.054 26.32 19.0402V8.96018C26.32 4.94636 23.0538 1.68018 19.04 1.68018H8.96ZM8.96 2.80018H19.04C22.4484 2.80018 25.2 5.55175 25.2 8.96018V19.0402C25.2 22.4486 22.4484 25.2002 19.04 25.2002H8.96C5.55157 25.2002 2.8 22.4486 2.8 19.0402V8.96018C2.8 5.55175 5.55157 2.80018 8.96 2.80018ZM20.72 6.16018C20.1014 6.16018 19.6 6.66162 19.6 7.28018C19.6 7.89874 20.1014 8.40018 20.72 8.40018C21.3386 8.40018 21.84 7.89874 21.84 7.28018C21.84 6.66162 21.3386 6.16018 20.72 6.16018ZM14 7.84018C10.6046 7.84018 7.84 10.6047 7.84 14.0002C7.84 17.3956 10.6046 20.1602 14 20.1602C17.3954 20.1602 20.16 17.3956 20.16 14.0002C20.16 10.6047 17.3954 7.84018 14 7.84018ZM14 8.96018C16.7901 8.96018 19.04 11.21 19.04 14.0002C19.04 16.7903 16.7901 19.0402 14 19.0402C11.2099 19.0402 8.96 16.7903 8.96 14.0002C8.96 11.21 11.2099 8.96018 14 8.96018Z" fill="white"/>
</svg>
