<svg width="28" height="28" viewBox="0 0 28 28" fill="none" xmlns="http://www.w3.org/2000/svg">
<path d="M8.96005 1.68018C4.94624 1.68018 1.68005 4.94636 1.68005 8.96018V19.0402C1.68005 23.054 4.94624 26.3202 8.96005 26.3202H19.0401C23.0539 26.3202 26.3201 23.054 26.3201 19.0402V8.96018C26.3201 4.94636 23.0539 1.68018 19.0401 1.68018H8.96005ZM8.96005 2.80018H19.0401C22.4485 2.80018 25.2001 5.55175 25.2001 8.96018V19.0402C25.2001 22.4486 22.4485 25.2002 19.0401 25.2002H8.96005C5.55162 25.2002 2.80005 22.4486 2.80005 19.0402V8.96018C2.80005 5.55175 5.55162 2.80018 8.96005 2.80018ZM20.7201 6.16018C20.1015 6.16018 19.6001 6.66162 19.6001 7.28018C19.6001 7.89874 20.1015 8.40018 20.7201 8.40018C21.3386 8.40018 21.8401 7.89874 21.8401 7.28018C21.8401 6.66162 21.3386 6.16018 20.7201 6.16018ZM14.0001 7.84018C10.6046 7.84018 7.84005 10.6047 7.84005 14.0002C7.84005 17.3956 10.6046 20.1602 14.0001 20.1602C17.3955 20.1602 20.1601 17.3956 20.1601 14.0002C20.1601 10.6047 17.3955 7.84018 14.0001 7.84018ZM14.0001 8.96018C16.7902 8.96018 19.0401 11.21 19.0401 14.0002C19.0401 16.7903 16.7902 19.0402 14.0001 19.0402C11.2099 19.0402 8.96005 16.7903 8.96005 14.0002C8.96005 11.21 11.2099 8.96018 14.0001 8.96018Z" fill="#BCBCB3"/>
</svg>
