<svg width="28" height="31" viewBox="0 0 28 31" fill="none" xmlns="http://www.w3.org/2000/svg">
<path d="M3.33333 0.368164C1.49972 0.368164 0 1.97501 0 3.93959V26.7967C0 28.7613 1.49972 30.3682 3.33333 30.3682H24.6667C26.5003 30.3682 28 28.7613 28 26.7967V3.93959C28 1.97501 26.5003 0.368164 24.6667 0.368164H3.33333ZM3.33333 1.79674H24.6667C25.7811 1.79674 26.6667 2.74561 26.6667 3.93959V26.7967C26.6667 27.9907 25.7811 28.9396 24.6667 28.9396H3.33333C2.21895 28.9396 1.33333 27.9907 1.33333 26.7967V3.93959C1.33333 2.74561 2.21895 1.79674 3.33333 1.79674ZM14.6953 4.65388C14.3276 4.65391 14.0294 4.97284 14.0286 5.36677C14.0286 5.36677 14.0213 8.84907 14.0143 12.3394C14.0108 14.0846 14.0065 15.8316 14.0039 17.1469C14.0013 18.4622 14 19.2945 14 19.3637C14 20.6603 12.901 21.72 11.6484 21.72C10.4059 21.72 9.41407 20.6559 9.41407 19.3246C9.41407 17.9934 10.4059 16.9307 11.6484 16.9307C11.6905 16.9307 11.7754 16.9455 11.9206 16.9642C12.11 16.9885 12.3001 16.9247 12.4427 16.7889C12.5854 16.6532 12.6669 16.4585 12.6667 16.2541V13.2532C12.6666 12.8761 12.393 12.5639 12.0417 12.5403C11.9378 12.5333 11.8071 12.5194 11.6484 12.5194C8.14876 12.5194 5.29689 15.575 5.29689 19.3246C5.29689 23.0743 8.14877 26.1299 11.6484 26.1299C15.148 26.1299 18 23.0743 18 19.3246V12.8612C18.9697 13.6922 20.1784 14.2186 21.513 14.2186C21.6951 14.2186 21.8682 14.2071 22.0339 14.1907C22.3769 14.1568 22.6394 13.8484 22.6393 13.4792V10.1436C22.6395 9.76894 22.3696 9.45778 22.0208 9.43067C19.9244 9.26952 18.2532 7.51976 18.0352 5.29423C17.9998 4.93048 17.7137 4.65409 17.3724 4.65389L14.6953 4.65388ZM15.3607 6.08245H16.8815C17.366 8.43866 19.0845 10.2356 21.306 10.6862V12.7328C19.8801 12.6553 18.6277 11.8931 17.8906 10.6918C17.7287 10.4278 17.4242 10.3091 17.1418 10.3998C16.8594 10.4906 16.6662 10.7693 16.6667 11.0852V19.3246C16.6667 22.3021 14.4275 24.7013 11.6484 24.7013C8.86945 24.7013 6.63021 22.3021 6.63021 19.3246C6.63021 16.4671 8.71073 14.199 11.3333 14.0163V15.5704C9.52429 15.7508 8.08073 17.3412 8.08073 19.3246C8.08073 21.4276 9.68563 23.1486 11.6484 23.1486C13.6013 23.1486 15.3333 21.5014 15.3333 19.3637C15.3333 19.3986 15.3346 18.465 15.3372 17.1497C15.3398 15.8344 15.3442 14.0874 15.3477 12.3422C15.3539 9.20871 15.3595 6.68902 15.3607 6.08245Z" fill="#BCBCB3"/>
</svg>
