<svg width="28" height="30" viewBox="0 0 28 30" fill="none" xmlns="http://www.w3.org/2000/svg">
<path d="M14 1.2002C6.89334 1.2002 1.12 7.38592 1.12 15.0002C1.12 17.4477 1.74647 19.7317 2.79126 21.7256L1.14078 28.0385C1.08713 28.244 1.13943 28.4647 1.27816 28.6179C1.41688 28.7711 1.62112 28.8338 1.81453 28.7826L7.95812 27.1514C9.76339 28.184 11.8118 28.8002 14 28.8002C21.1067 28.8002 26.88 22.6145 26.88 15.0002C26.88 7.38591 21.1067 1.2002 14 1.2002ZM14 2.4002C20.5013 2.4002 25.76 8.03448 25.76 15.0002C25.76 21.9659 20.5013 27.6002 14 27.6002C11.9157 27.6002 9.96359 27.018 8.26657 26.0006C8.14245 25.9263 7.9966 25.9053 7.85859 25.942L2.47844 27.3705L3.92109 21.8557C3.96281 21.6982 3.94266 21.5293 3.86531 21.3881C2.83398 19.5143 2.24 17.3343 2.24 15.0002C2.24 8.03448 7.49867 2.4002 14 2.4002ZM9.31985 7.8002C8.96087 7.8002 8.44819 7.94329 8.02704 8.4295C7.77407 8.72153 6.72001 9.82191 6.72001 11.7564C6.72001 13.7734 8.02559 15.5137 8.18344 15.7373H8.18454V15.7385C8.16956 15.7174 8.38491 16.0515 8.67235 16.4522C8.9598 16.8528 9.36175 17.379 9.86672 17.9486C10.8767 19.0879 12.2966 20.4047 14.0591 21.21C14.8707 21.5803 15.511 21.8039 15.9961 21.967C16.8951 22.2695 17.714 22.2235 18.3291 22.1264C18.7895 22.0537 19.2959 21.8169 19.7969 21.4772C20.2979 21.1374 20.7889 20.715 21.0055 20.0733C21.1606 19.6132 21.2395 19.188 21.268 18.8381C21.2822 18.6632 21.284 18.5088 21.2734 18.3658C21.2628 18.2229 21.2742 18.1134 21.1498 17.8947C20.8891 17.4361 20.5939 17.4241 20.2858 17.2608C20.1146 17.17 19.6273 16.915 19.1384 16.6654C18.6502 16.4162 18.2274 16.1954 17.967 16.0959C17.8025 16.0325 17.6017 15.9412 17.3119 15.9764C17.0221 16.0115 16.7359 16.2356 16.5692 16.5002C16.4113 16.751 15.7754 17.5552 15.5816 17.7916C15.579 17.7899 15.5958 17.7982 15.5192 17.7576C15.2795 17.6305 14.9863 17.5224 14.5523 17.2772C14.1184 17.0319 13.5757 16.6698 12.9817 16.1088V16.1076C12.0977 15.2738 11.4785 14.2269 11.2831 13.8752C11.2963 13.8584 11.2816 13.8787 11.3094 13.8494L11.3105 13.8483C11.5101 13.6376 11.6871 13.3859 11.8366 13.2014C12.0485 12.9397 12.1421 12.7091 12.2434 12.4936C12.4454 12.0641 12.3329 11.5915 12.2161 11.3428V11.3416C12.2242 11.3588 12.1529 11.1903 12.0761 10.9959C11.9991 10.801 11.9009 10.5482 11.7961 10.2787C11.5864 9.73971 11.3523 9.13516 11.2131 8.78107V8.7799C11.0491 8.36283 10.8273 8.06236 10.5372 7.9174C10.2471 7.77244 9.99083 7.81366 9.98046 7.81311H9.97937C9.77237 7.80288 9.54523 7.8002 9.31985 7.8002ZM9.31985 9.0002C9.53575 9.0002 9.74861 9.00302 9.92688 9.01192C10.1103 9.02171 10.0989 9.02251 10.0636 9.00489C10.0278 8.98698 10.0764 8.98117 10.1806 9.24629C10.3169 9.593 10.5522 10.1997 10.7625 10.7404C10.8677 11.0108 10.9661 11.2645 11.0447 11.4635C11.1233 11.6625 11.1659 11.7736 11.2153 11.8795V11.8807L11.2164 11.8818C11.2649 11.9843 11.2606 11.9187 11.2437 11.9545C11.1256 12.2058 11.1095 12.2675 10.99 12.415C10.808 12.6397 10.6223 12.8902 10.5241 12.9939C10.4381 13.0844 10.283 13.2254 10.1861 13.5014C10.0891 13.7777 10.1344 14.1569 10.29 14.44C10.4972 14.8169 11.1801 16.0078 12.2413 17.0088C12.9095 17.64 13.5322 18.0577 14.0295 18.3389C14.5269 18.62 14.932 18.7841 15.0227 18.8322C15.2379 18.9464 15.4732 19.035 15.7467 18.9998C16.0203 18.9646 16.2561 18.7868 16.4063 18.6049L16.4073 18.6037C16.6072 18.361 17.2009 17.6346 17.4858 17.1869C17.4979 17.1915 17.4939 17.1879 17.5886 17.2244V17.2256H17.5897C17.6329 17.2421 18.1744 17.5017 18.6572 17.7482C19.14 17.9947 19.63 18.2509 19.7892 18.3353C20.019 18.4572 20.1276 18.5365 20.1556 18.5369C20.1575 18.5897 20.1594 18.6469 20.1523 18.7338C20.1327 18.9748 20.0726 19.3083 19.9522 19.6654C19.8932 19.8402 19.586 20.2008 19.1986 20.4635C18.8112 20.7262 18.3396 20.9117 18.165 20.9393C17.6399 21.0221 17.0165 21.0524 16.3319 20.8221C15.8571 20.6624 15.2652 20.4558 14.4987 20.1061C12.9443 19.3958 11.6231 18.1871 10.6794 17.1225C10.2075 16.5901 9.82944 16.0946 9.56047 15.7197C9.292 15.3455 9.17477 15.1508 9.07703 15.0131L9.07594 15.0119C8.90243 14.7661 7.84 13.1827 7.84 11.7564C7.84 10.247 8.49436 9.65506 8.84844 9.2463C9.03433 9.0317 9.23755 9.0002 9.31985 9.0002Z" fill="white"/>
</svg>
